<?xml version="1.0" encoding="iso-8859-1"?>
<!-- Generator: Adobe Illustrator 18.0.0, SVG Export Plug-In . SVG Version: 6.00 Build 0)  -->
<!DOCTYPE svg PUBLIC "-//W3C//DTD SVG 1.1//EN" "http://www.w3.org/Graphics/SVG/1.1/DTD/svg11.dtd">
<svg version="1.1" id="Capa_1" xmlns="http://www.w3.org/2000/svg" xmlns:xlink="http://www.w3.org/1999/xlink" x="0px" y="0px"
	 viewBox="0 0 86.483 77.577" style="enable-background:new 0 0 86.483 77.577;" xml:space="preserve">
<path style="fill:#ffffff;" d="M84.842,11.391c-1.089-1.114-2.437-1.688-4.031-1.688H59.39V2.625C59.39,1.172,58.265,0,56.812,0H56.53h-0.281H30.234
	h-0.281h-0.282c-1.453,0-2.625,1.172-2.625,2.625v7.078H5.672c-1.594,0-2.942,0.574-4.032,1.688C0.574,12.48,0,13.828,0,15.375
	v56.53c0,1.547,0.55,2.918,1.64,4.031c1.067,1.09,2.438,1.641,4.032,1.641h75.139c1.594,0,2.965-0.551,4.031-1.641
	c1.09-1.114,1.641-2.484,1.641-4.031v-56.53C86.483,13.828,85.909,12.48,84.842,11.391z M32.249,5.203h21.984v4.5H32.249V5.203z
	 M18.421,72.374H5.672c-0.235,0-0.516-0.281-0.516-0.469v-56.53c0-0.328,0.187-0.469,0.516-0.469h12.749V72.374z M62.858,72.374
	h-39.14V14.906h39.14V72.374z M81.28,71.905c0,0.328-0.141,0.469-0.469,0.469h-12.75V14.906h12.75c0.328,0,0.469,0.141,0.469,0.469
	V71.905z"/>
<g>
</g>
<g>
</g>
<g>
</g>
<g>
</g>
<g>
</g>
<g>
</g>
<g>
</g>
<g>
</g>
<g>
</g>
<g>
</g>
<g>
</g>
<g>
</g>
<g>
</g>
<g>
</g>
<g>
</g>
</svg>
